<svg xmlns="http://www.w3.org/2000/svg" width="760" height="300" viewBox="0 0 760 300" preserveAspectRatio="xMidYMid meet" font-family="-apple-system,Segoe UI,Helvetica,Arial,sans-serif">
<defs><linearGradient id="g3fb950" x1="0" y1="0" x2="0" y2="1"><stop offset="0" stop-color="#3fb950" stop-opacity="0.28"/><stop offset="1" stop-color="#3fb950" stop-opacity="0"/></linearGradient></defs>
<text x="58" y="24" fill="#8b949e" font-size="15" font-weight="700">Cumulative A/B Elo</text>
<text x="738" y="24" fill="#8b949e" font-size="12" text-anchor="end">vs v31 baseline</text>
<line x1="58" y1="266.0" x2="738" y2="266.0" stroke="#8b949e33"/>
<text x="50" y="270.0" fill="#8b949e" font-size="11" text-anchor="end">+0</text>
<line x1="58" y1="210.5" x2="738" y2="210.5" stroke="#8b949e33"/>
<text x="50" y="214.5" fill="#8b949e" font-size="11" text-anchor="end">+70</text>
<line x1="58" y1="155.0" x2="738" y2="155.0" stroke="#8b949e33"/>
<text x="50" y="159.0" fill="#8b949e" font-size="11" text-anchor="end">+140</text>
<line x1="58" y1="99.5" x2="738" y2="99.5" stroke="#8b949e33"/>
<text x="50" y="103.5" fill="#8b949e" font-size="11" text-anchor="end">+211</text>
<line x1="58" y1="44.0" x2="738" y2="44.0" stroke="#8b949e33"/>
<text x="50" y="48.0" fill="#8b949e" font-size="11" text-anchor="end">+281</text>
<text x="58.0" y="288" fill="#8b949e" font-size="11" text-anchor="middle">v31</text>
<text x="176.3" y="288" fill="#8b949e" font-size="11" text-anchor="middle">v35</text>
<text x="324.1" y="288" fill="#8b949e" font-size="11" text-anchor="middle">v40</text>
<text x="471.9" y="288" fill="#8b949e" font-size="11" text-anchor="middle">v45</text>
<text x="619.7" y="288" fill="#8b949e" font-size="11" text-anchor="middle">v50</text>
<text x="738.0" y="288" fill="#8b949e" font-size="11" text-anchor="middle">v54</text>
<path d="M58.0,266.0 L58.0,266.0 L87.6,260.2 L117.1,241.6 L146.7,236.2 L176.3,179.3 L205.8,159.8 L235.4,159.7 L265.0,158.6 L294.5,151.6 L324.1,148.2 L353.7,150.5 L383.2,147.9 L412.8,143.8 L442.3,133.3 L471.9,122.6 L501.5,117.9 L531.0,115.4 L560.6,111.7 L590.2,110.9 L619.7,109.6 L649.3,100.8 L678.9,95.6 L708.4,65.9 L738.0,41.3 L738.0,266.0 Z" fill="url(#g3fb950)"/>
<polyline points="58.0,266.0 87.6,260.2 117.1,241.6 146.7,236.2 176.3,179.3 205.8,159.8 235.4,159.7 265.0,158.6 294.5,151.6 324.1,148.2 353.7,150.5 383.2,147.9 412.8,143.8 442.3,133.3 471.9,122.6 501.5,117.9 531.0,115.4 560.6,111.7 590.2,110.9 619.7,109.6 649.3,100.8 678.9,95.6 708.4,65.9 738.0,41.3" fill="none" stroke="#3fb950" stroke-width="2.5" stroke-linejoin="round"/>
<circle cx="738.0" cy="41.3" r="4" fill="#3fb950"/>
<text x="730.0" y="32.3" fill="#3fb950" font-size="13" font-weight="700" text-anchor="end">+284</text>
</svg>