<svg xmlns="http://www.w3.org/2000/svg" width="760" height="300" viewBox="0 0 760 300" preserveAspectRatio="xMidYMid meet" font-family="-apple-system,Segoe UI,Helvetica,Arial,sans-serif">
<defs><linearGradient id="ga371f7" x1="0" y1="0" x2="0" y2="1"><stop offset="0" stop-color="#a371f7" stop-opacity="0.28"/><stop offset="1" stop-color="#a371f7" stop-opacity="0"/></linearGradient></defs>
<text x="58" y="24" fill="#8b949e" font-size="15" font-weight="700">Knight odds win% vs full-strength SF-18</text>
<text x="738" y="24" fill="#8b949e" font-size="12" text-anchor="end">external yardstick</text>
<line x1="58" y1="266.0" x2="738" y2="266.0" stroke="#8b949e33"/>
<text x="50" y="270.0" fill="#8b949e" font-size="11" text-anchor="end">74%</text>
<line x1="58" y1="210.5" x2="738" y2="210.5" stroke="#8b949e33"/>
<text x="50" y="214.5" fill="#8b949e" font-size="11" text-anchor="end">76%</text>
<line x1="58" y1="155.0" x2="738" y2="155.0" stroke="#8b949e33"/>
<text x="50" y="159.0" fill="#8b949e" font-size="11" text-anchor="end">79%</text>
<line x1="58" y1="99.5" x2="738" y2="99.5" stroke="#8b949e33"/>
<text x="50" y="103.5" fill="#8b949e" font-size="11" text-anchor="end">82%</text>
<line x1="58" y1="44.0" x2="738" y2="44.0" stroke="#8b949e33"/>
<text x="50" y="48.0" fill="#8b949e" font-size="11" text-anchor="end">84%</text>
<path d="M58.0,266.0 L58.0,204.9 L640.9,153.9 L738.0,96.2 L738.0,266.0 Z" fill="url(#ga371f7)"/>
<polyline points="58.0,204.9 640.9,153.9 738.0,96.2" fill="none" stroke="#a371f7" stroke-width="2.5" stroke-linejoin="round"/>
<circle cx="58.0" cy="204.9" r="4" fill="#a371f7"/>
<text x="58.0" y="193.9" fill="#a371f7" font-size="12.5" font-weight="700" text-anchor="middle">76.75%</text>
<text x="58.0" y="288" fill="#8b949e" font-size="11" text-anchor="middle">v31</text>
<circle cx="640.9" cy="153.9" r="4" fill="#a371f7"/>
<text x="640.9" y="142.9" fill="#a371f7" font-size="12.5" font-weight="700" text-anchor="middle">79.05%</text>
<text x="640.9" y="288" fill="#8b949e" font-size="11" text-anchor="middle">v49</text>
<circle cx="738.0" cy="96.2" r="4" fill="#a371f7"/>
<text x="738.0" y="85.2" fill="#a371f7" font-size="12.5" font-weight="700" text-anchor="middle">81.65%</text>
<text x="738.0" y="288" fill="#8b949e" font-size="11" text-anchor="middle">v52</text>
</svg>