<svg xmlns="http://www.w3.org/2000/svg" width="760" height="300" viewBox="0 0 760 300" preserveAspectRatio="xMidYMid meet" font-family="-apple-system,Segoe UI,Helvetica,Arial,sans-serif">
<text x="28" y="24" fill="#8b949e" font-size="15" font-weight="700">Odds it can spot full-strength SF-18 and still win</text>
<text x="738" y="24" fill="#8b949e" font-size="12" text-anchor="end">latest each</text>
<rect x="104" y="44.0" width="582.0" height="43.5" rx="4" fill="#8b949e33"/>
<rect x="104" y="44.0" width="582.0" height="43.5" rx="4" fill="#f0883e"/>
<text x="94" y="70.8" fill="#8b949e" font-size="13" font-weight="600" text-anchor="end">Queen</text>
<text x="676.0" y="70.8" fill="#0d1117" font-size="13" font-weight="700" text-anchor="end">100.0%</text>
<text x="738" y="70.8" fill="#8b949e" font-size="11" text-anchor="end">v-</text>
<rect x="104" y="103.5" width="582.0" height="43.5" rx="4" fill="#8b949e33"/>
<rect x="104" y="103.5" width="555.8" height="43.5" rx="4" fill="#f0883e"/>
<text x="94" y="130.2" fill="#8b949e" font-size="13" font-weight="600" text-anchor="end">Rook</text>
<text x="649.8" y="130.2" fill="#0d1117" font-size="13" font-weight="700" text-anchor="end">95.5%</text>
<text x="738" y="130.2" fill="#8b949e" font-size="11" text-anchor="end">v49</text>
<rect x="104" y="163.0" width="582.0" height="43.5" rx="4" fill="#8b949e33"/>
<rect x="104" y="163.0" width="582.0" height="43.5" rx="4" fill="#f0883e"/>
<text x="94" y="189.8" fill="#8b949e" font-size="13" font-weight="600" text-anchor="end">Knight</text>
<text x="676.0" y="189.8" fill="#0d1117" font-size="13" font-weight="700" text-anchor="end">100.0%</text>
<text x="738" y="189.8" fill="#8b949e" font-size="11" text-anchor="end">v54</text>
<rect x="104" y="222.5" width="582.0" height="43.5" rx="4" fill="#8b949e33"/>
<rect x="104" y="222.5" width="494.0" height="43.5" rx="4" fill="#f0883e"/>
<text x="94" y="249.2" fill="#8b949e" font-size="13" font-weight="600" text-anchor="end">Pawn</text>
<text x="606.0" y="249.2" fill="#f0883e" font-size="13" font-weight="700" text-anchor="start">84.9%</text>
<text x="738" y="249.2" fill="#8b949e" font-size="11" text-anchor="end">v54</text>
</svg>