<svg xmlns="http://www.w3.org/2000/svg" width="760" height="300" viewBox="0 0 760 300" preserveAspectRatio="xMidYMid meet" font-family="-apple-system,Segoe UI,Helvetica,Arial,sans-serif">
<defs><linearGradient id="ga371f7" x1="0" y1="0" x2="0" y2="1"><stop offset="0" stop-color="#a371f7" stop-opacity="0.28"/><stop offset="1" stop-color="#a371f7" stop-opacity="0"/></linearGradient><linearGradient id="g3fb950" x1="0" y1="0" x2="0" y2="1"><stop offset="0" stop-color="#3fb950" stop-opacity="0.28"/><stop offset="1" stop-color="#3fb950" stop-opacity="0"/></linearGradient></defs>
<text x="58" y="24" fill="#8b949e" font-size="15" font-weight="700">Odds win% vs full-strength SF-18</text>
<text x="738" y="24" fill="#8b949e" font-size="12" text-anchor="end">knight closed -> pawn active</text>
<line x1="58" y1="266.0" x2="738" y2="266.0" stroke="#8b949e33"/>
<text x="50" y="270.0" fill="#8b949e" font-size="11" text-anchor="end">74%</text>
<line x1="58" y1="210.5" x2="738" y2="210.5" stroke="#8b949e33"/>
<text x="50" y="214.5" fill="#8b949e" font-size="11" text-anchor="end">81%</text>
<line x1="58" y1="155.0" x2="738" y2="155.0" stroke="#8b949e33"/>
<text x="50" y="159.0" fill="#8b949e" font-size="11" text-anchor="end">88%</text>
<line x1="58" y1="99.5" x2="738" y2="99.5" stroke="#8b949e33"/>
<text x="50" y="103.5" fill="#8b949e" font-size="11" text-anchor="end">95%</text>
<line x1="58" y1="44.0" x2="738" y2="44.0" stroke="#8b949e33"/>
<text x="50" y="48.0" fill="#8b949e" font-size="11" text-anchor="end">102%</text>
<path d="M58.0,266.0 L58.0,244.2 L590.2,226.0 L678.9,205.3 L738.0,59.9 L738.0,266.0 Z" fill="url(#ga371f7)"/>
<polyline points="58.0,244.2 590.2,226.0 678.9,205.3 738.0,59.9" fill="none" stroke="#a371f7" stroke-width="2.5" stroke-linejoin="round"/>
<circle cx="58.0" cy="244.2" r="4" fill="#a371f7"/>
<text x="58.0" y="233.2" fill="#a371f7" font-size="12.5" font-weight="700" text-anchor="middle">76.75%</text>
<circle cx="590.2" cy="226.0" r="4" fill="#a371f7"/>
<text x="590.2" y="215.0" fill="#a371f7" font-size="12.5" font-weight="700" text-anchor="middle">79.05%</text>
<circle cx="678.9" cy="205.3" r="4" fill="#a371f7"/>
<text x="671.9" y="194.3" fill="#a371f7" font-size="12.5" font-weight="700" text-anchor="end">81.65%</text>
<circle cx="738.0" cy="59.9" r="4" fill="#a371f7"/>
<text x="738.0" y="48.9" fill="#a371f7" font-size="12.5" font-weight="700" text-anchor="end">100.00%</text>
<text x="67.0" y="260.2" fill="#a371f7" font-size="12" font-weight="600" text-anchor="start">knight</text>
<circle cx="738.0" cy="179.7" r="4" fill="#3fb950"/>
<text x="729.0" y="168.7" fill="#3fb950" font-size="12.5" font-weight="700" text-anchor="end">84.88%</text>
<text x="729.0" y="195.7" fill="#3fb950" font-size="12" font-weight="600" text-anchor="end">pawn</text>
<text x="58.0" y="288" fill="#8b949e" font-size="11" text-anchor="middle">v31</text>
<text x="590.2" y="288" fill="#8b949e" font-size="11" text-anchor="middle">v49</text>
<text x="678.9" y="288" fill="#8b949e" font-size="11" text-anchor="middle">v52</text>
<text x="738.0" y="288" fill="#8b949e" font-size="11" text-anchor="middle">v54</text>
</svg>