<svg xmlns="http://www.w3.org/2000/svg" width="760" height="300" viewBox="0 0 760 300" preserveAspectRatio="xMidYMid meet" font-family="-apple-system,Segoe UI,Helvetica,Arial,sans-serif">
<defs><linearGradient id="g58a6ff" x1="0" y1="0" x2="0" y2="1"><stop offset="0" stop-color="#58a6ff" stop-opacity="0.28"/><stop offset="1" stop-color="#58a6ff" stop-opacity="0"/></linearGradient></defs>
<text x="58" y="24" fill="#8b949e" font-size="15" font-weight="700">Single-thread speed</text>
<text x="738" y="24" fill="#8b949e" font-size="12" text-anchor="end">x v31</text>
<line x1="58" y1="266.0" x2="738" y2="266.0" stroke="#8b949e33"/>
<text x="50" y="270.0" fill="#8b949e" font-size="11" text-anchor="end">0.85x</text>
<line x1="58" y1="210.5" x2="738" y2="210.5" stroke="#8b949e33"/>
<text x="50" y="214.5" fill="#8b949e" font-size="11" text-anchor="end">1.04x</text>
<line x1="58" y1="155.0" x2="738" y2="155.0" stroke="#8b949e33"/>
<text x="50" y="159.0" fill="#8b949e" font-size="11" text-anchor="end">1.23x</text>
<line x1="58" y1="99.5" x2="738" y2="99.5" stroke="#8b949e33"/>
<text x="50" y="103.5" fill="#8b949e" font-size="11" text-anchor="end">1.41x</text>
<line x1="58" y1="44.0" x2="738" y2="44.0" stroke="#8b949e33"/>
<text x="50" y="48.0" fill="#8b949e" font-size="11" text-anchor="end">1.60x</text>
<text x="58.0" y="288" fill="#8b949e" font-size="11" text-anchor="middle">v31</text>
<text x="145.7" y="288" fill="#8b949e" font-size="11" text-anchor="middle">v35</text>
<text x="255.4" y="288" fill="#8b949e" font-size="11" text-anchor="middle">v40</text>
<text x="365.1" y="288" fill="#8b949e" font-size="11" text-anchor="middle">v45</text>
<text x="474.8" y="288" fill="#8b949e" font-size="11" text-anchor="middle">v50</text>
<text x="584.5" y="288" fill="#8b949e" font-size="11" text-anchor="middle">v55</text>
<text x="738.0" y="288" fill="#8b949e" font-size="11" text-anchor="middle">v62</text>
<path d="M58.0,266.0 L58.0,221.2 L79.9,221.8 L101.9,222.9 L123.8,230.1 L145.7,171.1 L167.7,102.7 L189.6,112.1 L211.5,127.0 L233.5,80.6 L255.4,79.5 L277.4,95.5 L299.3,69.6 L321.2,60.8 L343.2,43.2 L365.1,70.7 L387.0,98.8 L409.0,121.4 L430.9,119.2 L452.8,125.9 L474.8,120.3 L496.7,119.8 L518.6,119.8 L540.6,117.0 L562.5,126.4 L584.5,115.4 L606.4,105.5 L628.3,107.7 L650.3,222.3 L672.2,190.9 L694.1,193.7 L716.1,189.8 L738.0,188.2 L738.0,266.0 Z" fill="url(#g58a6ff)"/>
<polyline points="58.0,221.2 79.9,221.8 101.9,222.9 123.8,230.1 145.7,171.1 167.7,102.7 189.6,112.1 211.5,127.0 233.5,80.6 255.4,79.5 277.4,95.5 299.3,69.6 321.2,60.8 343.2,43.2 365.1,70.7 387.0,98.8 409.0,121.4 430.9,119.2 452.8,125.9 474.8,120.3 496.7,119.8 518.6,119.8 540.6,117.0 562.5,126.4 584.5,115.4 606.4,105.5 628.3,107.7 650.3,222.3 672.2,190.9 694.1,193.7 716.1,189.8 738.0,188.2" fill="none" stroke="#58a6ff" stroke-width="2.5" stroke-linejoin="round"/>
<circle cx="738.0" cy="188.2" r="4" fill="#58a6ff"/>
<text x="730.0" y="179.2" fill="#58a6ff" font-size="13" font-weight="700" text-anchor="end">1.11x</text>
</svg>