<svg xmlns="http://www.w3.org/2000/svg" width="760" height="300" viewBox="0 0 760 300" preserveAspectRatio="xMidYMid meet" font-family="-apple-system,Segoe UI,Helvetica,Arial,sans-serif">
<defs><linearGradient id="g58a6ff" x1="0" y1="0" x2="0" y2="1"><stop offset="0" stop-color="#58a6ff" stop-opacity="0.28"/><stop offset="1" stop-color="#58a6ff" stop-opacity="0"/></linearGradient></defs>
<text x="58" y="24" fill="#8b949e" font-size="15" font-weight="700">Single-thread speed</text>
<text x="738" y="24" fill="#8b949e" font-size="12" text-anchor="end">x v31</text>
<line x1="58" y1="266.0" x2="738" y2="266.0" stroke="#8b949e33"/>
<text x="50" y="270.0" fill="#8b949e" font-size="11" text-anchor="end">0.85x</text>
<line x1="58" y1="210.5" x2="738" y2="210.5" stroke="#8b949e33"/>
<text x="50" y="214.5" fill="#8b949e" font-size="11" text-anchor="end">1.04x</text>
<line x1="58" y1="155.0" x2="738" y2="155.0" stroke="#8b949e33"/>
<text x="50" y="159.0" fill="#8b949e" font-size="11" text-anchor="end">1.23x</text>
<line x1="58" y1="99.5" x2="738" y2="99.5" stroke="#8b949e33"/>
<text x="50" y="103.5" fill="#8b949e" font-size="11" text-anchor="end">1.41x</text>
<line x1="58" y1="44.0" x2="738" y2="44.0" stroke="#8b949e33"/>
<text x="50" y="48.0" fill="#8b949e" font-size="11" text-anchor="end">1.60x</text>
<text x="58.0" y="288" fill="#8b949e" font-size="11" text-anchor="middle">v31</text>
<text x="140.4" y="288" fill="#8b949e" font-size="11" text-anchor="middle">v35</text>
<text x="243.5" y="288" fill="#8b949e" font-size="11" text-anchor="middle">v40</text>
<text x="346.5" y="288" fill="#8b949e" font-size="11" text-anchor="middle">v45</text>
<text x="449.5" y="288" fill="#8b949e" font-size="11" text-anchor="middle">v50</text>
<text x="552.5" y="288" fill="#8b949e" font-size="11" text-anchor="middle">v55</text>
<text x="655.6" y="288" fill="#8b949e" font-size="11" text-anchor="middle">v60</text>
<text x="738.0" y="288" fill="#8b949e" font-size="11" text-anchor="middle">v64</text>
<path d="M58.0,266.0 L58.0,221.2 L78.6,221.2 L99.2,235.4 L119.8,228.3 L140.4,149.1 L161.0,85.3 L181.6,69.9 L202.2,81.7 L222.8,52.2 L243.5,47.4 L264.1,46.2 L284.7,49.8 L305.3,55.7 L325.9,40.3 L346.5,38.0 L367.1,46.2 L387.7,45.1 L408.3,64.0 L428.9,62.8 L449.5,56.9 L470.1,59.3 L490.7,68.7 L511.3,81.7 L531.9,91.2 L552.5,58.1 L573.2,39.1 L593.8,38.0 L614.4,158.6 L635.0,120.7 L655.6,127.8 L676.2,97.1 L696.8,116.0 L717.4,98.3 L738.0,123.1 L738.0,266.0 Z" fill="url(#g58a6ff)"/>
<polyline points="58.0,221.2 78.6,221.2 99.2,235.4 119.8,228.3 140.4,149.1 161.0,85.3 181.6,69.9 202.2,81.7 222.8,52.2 243.5,47.4 264.1,46.2 284.7,49.8 305.3,55.7 325.9,40.3 346.5,38.0 367.1,46.2 387.7,45.1 408.3,64.0 428.9,62.8 449.5,56.9 470.1,59.3 490.7,68.7 511.3,81.7 531.9,91.2 552.5,58.1 573.2,39.1 593.8,38.0 614.4,158.6 635.0,120.7 655.6,127.8 676.2,97.1 696.8,116.0 717.4,98.3 738.0,123.1" fill="none" stroke="#58a6ff" stroke-width="2.5" stroke-linejoin="round"/>
<circle cx="738.0" cy="123.1" r="4" fill="#58a6ff"/>
<text x="730.0" y="114.1" fill="#58a6ff" font-size="13" font-weight="700" text-anchor="end">1.33x</text>
</svg>