<svg xmlns="http://www.w3.org/2000/svg" width="760" height="300" viewBox="0 0 760 300" preserveAspectRatio="xMidYMid meet" font-family="-apple-system,Segoe UI,Helvetica,Arial,sans-serif">
<defs><linearGradient id="g58a6ff" x1="0" y1="0" x2="0" y2="1"><stop offset="0" stop-color="#58a6ff" stop-opacity="0.28"/><stop offset="1" stop-color="#58a6ff" stop-opacity="0"/></linearGradient></defs>
<text x="58" y="24" fill="#8b949e" font-size="15" font-weight="700">Single-thread speed</text>
<text x="738" y="24" fill="#8b949e" font-size="12" text-anchor="end">x v31</text>
<line x1="58" y1="266.0" x2="738" y2="266.0" stroke="#8b949e33"/>
<text x="50" y="270.0" fill="#8b949e" font-size="11" text-anchor="end">0.73x</text>
<line x1="58" y1="210.5" x2="738" y2="210.5" stroke="#8b949e33"/>
<text x="50" y="214.5" fill="#8b949e" font-size="11" text-anchor="end">0.99x</text>
<line x1="58" y1="155.0" x2="738" y2="155.0" stroke="#8b949e33"/>
<text x="50" y="159.0" fill="#8b949e" font-size="11" text-anchor="end">1.25x</text>
<line x1="58" y1="99.5" x2="738" y2="99.5" stroke="#8b949e33"/>
<text x="50" y="103.5" fill="#8b949e" font-size="11" text-anchor="end">1.51x</text>
<line x1="58" y1="44.0" x2="738" y2="44.0" stroke="#8b949e33"/>
<text x="50" y="48.0" fill="#8b949e" font-size="11" text-anchor="end">1.77x</text>
<text x="58.0" y="288" fill="#8b949e" font-size="11" text-anchor="middle">v31</text>
<text x="176.3" y="288" fill="#8b949e" font-size="11" text-anchor="middle">v35</text>
<text x="324.1" y="288" fill="#8b949e" font-size="11" text-anchor="middle">v40</text>
<text x="471.9" y="288" fill="#8b949e" font-size="11" text-anchor="middle">v45</text>
<text x="619.7" y="288" fill="#8b949e" font-size="11" text-anchor="middle">v50</text>
<text x="738.0" y="288" fill="#8b949e" font-size="11" text-anchor="middle">v54</text>
<path d="M58.0,266.0 L58.0,208.2 L87.6,203.6 L117.1,229.1 L146.7,227.2 L176.3,175.4 L205.8,130.9 L235.4,133.6 L265.0,140.0 L294.5,115.5 L324.1,117.3 L353.7,120.0 L383.2,120.0 L412.8,127.3 L442.3,87.3 L471.9,113.7 L501.5,80.9 L531.0,130.9 L560.6,141.8 L590.2,135.5 L619.7,128.2 L649.3,76.4 L678.9,76.4 L708.4,79.1 L738.0,85.5 L738.0,266.0 Z" fill="url(#g58a6ff)"/>
<polyline points="58.0,208.2 87.6,203.6 117.1,229.1 146.7,227.2 176.3,175.4 205.8,130.9 235.4,133.6 265.0,140.0 294.5,115.5 324.1,117.3 353.7,120.0 383.2,120.0 412.8,127.3 442.3,87.3 471.9,113.7 501.5,80.9 531.0,130.9 560.6,141.8 590.2,135.5 619.7,128.2 649.3,76.4 678.9,76.4 708.4,79.1 738.0,85.5" fill="none" stroke="#58a6ff" stroke-width="2.5" stroke-linejoin="round"/>
<circle cx="738.0" cy="85.5" r="4" fill="#58a6ff"/>
<text x="730.0" y="76.5" fill="#58a6ff" font-size="13" font-weight="700" text-anchor="end">1.58x</text>
</svg>